HIERARCHY
ROOT hip
{
  OFFSET 0 0 0
  CHANNELS 6 Xposition Yposition Zposition Zrotation Yrotation Xrotation
  JOINT abdomen
  {
    OFFSET 0 20.6881 -0.73152
    CHANNELS 3 Zrotation Xrotation Yrotation
    JOINT chest
    {
      OFFSET 0 11.7043 -0.48768
      CHANNELS 3 Zrotation Xrotation Yrotation
      JOINT neck
      {
        OFFSET 0 22.1894 -2.19456
        CHANNELS 3 Zrotation Xrotation Yrotation
        JOINT head
        {
          OFFSET -0.24384 7.07133 1.2192
          CHANNELS 3 Zrotation Xrotation Yrotation
          JOINT leftEye
          {
            OFFSET 4.14528 8.04674 8.04672
            CHANNELS 3 Zrotation Xrotation Yrotation
            End Site
            {
              OFFSET 1 0 0
            }
          }
          JOINT rightEye
          {
            OFFSET -3.6576 8.04674 8.04672
            CHANNELS 3 Zrotation Xrotation Yrotation
            End Site
            {
              OFFSET 1 0 0
            }
          }
        }
      }
      JOINT rCollar
      {
        OFFSET -2.68224 19.2634 -4.8768
        CHANNELS 3 Zrotation Xrotation Yrotation
        JOINT rShldr
        {
          OFFSET -8.77824 -1.95073 1.46304
          CHANNELS 3 Zrotation Xrotation Yrotation
          JOINT rForeArm
          {
            OFFSET -28.1742 -1.7115 0.48768
            CHANNELS 3 Zrotation Xrotation Yrotation
            JOINT rHand
            {
              OFFSET -22.5879 0.773209 7.07136
              CHANNELS 3 Zrotation Xrotation Yrotation
              JOINT rThumb1
              {
                OFFSET -1.2192 -0.487915 3.41376
                CHANNELS 3 Zrotation Xrotation Yrotation
                JOINT rThumb2
                {
                  OFFSET -3.37035 -0.52449 3.41376
                  CHANNELS 3 Zrotation Xrotation Yrotation
                  End Site
                  {
                    OFFSET -1.78271 -1.18214 1.43049
                  }
                }
              }
              JOINT rIndex1
              {
                OFFSET -7.75947 0.938293 5.60832
                CHANNELS 3 Zrotation Xrotation Yrotation
                JOINT rIndex2
                {
                  OFFSET -2.54057 -0.884171 1.56538
                  CHANNELS 3 Zrotation Xrotation Yrotation
                  End Site
                  {
                    OFFSET -1.62519 -0.234802 1.16502
                  }
                }
              }
              JOINT rMid1
              {
                OFFSET -8.24714 1.18213 3.41376
                CHANNELS 3 Zrotation Xrotation Yrotation
                JOINT rMid2
                {
                  OFFSET -3.10165 -0.590103 1.0647
                  CHANNELS 3 Zrotation Xrotation Yrotation
                  End Site
                  {
                    OFFSET -2.48547 -0.328903 0.83742
                  }
                }
              }
              JOINT rRing1
              {
                OFFSET -8.82822 0.546677 1.51678
                CHANNELS 3 Zrotation Xrotation Yrotation
                JOINT rRing2
                {
                  OFFSET -2.60934 -0.819778 -0.0198488
                  CHANNELS 3 Zrotation Xrotation Yrotation
                  End Site
                  {
                    OFFSET -2.33842 -0.294052 0.168128
                  }
                }
              }
              JOINT rPinky1
              {
                OFFSET -8.27202 -0.0477905 -0.4584
                CHANNELS 3 Zrotation Xrotation Yrotation
                JOINT rPinky2
                {
                  OFFSET -1.82734 -0.647385 -0.700984
                  CHANNELS 3 Zrotation Xrotation Yrotation
                  End Site
                  {
                    OFFSET -1.69225 -0.51767 -0.607171
                  }
                }
              }
            }
          }
        }
      }
      JOINT lCollar
      {
        OFFSET 2.68224 19.2634 -4.8768
        CHANNELS 3 Zrotation Xrotation Yrotation
        JOINT lShldr
        {
          OFFSET 8.77824 -1.95073 1.46304
          CHANNELS 3 Zrotation Xrotation Yrotation
          JOINT lForeArm
          {
            OFFSET 28.1742 -1.7115 0.48768
            CHANNELS 3 Zrotation Xrotation Yrotation
            JOINT lHand
            {
              OFFSET 22.5879 0.773209 7.07136
              CHANNELS 3 Zrotation Xrotation Yrotation
              JOINT lThumb1
              {
                OFFSET 1.2192 -0.487915 3.41376
                CHANNELS 3 Zrotation Xrotation Yrotation
                JOINT lThumb2
                {
                  OFFSET 3.37035 -0.52449 3.41376
                  CHANNELS 3 Zrotation Xrotation Yrotation
                  End Site
                  {
                    OFFSET 1.78271 -1.18214 1.43049
                  }
                }
              }
              JOINT lIndex1
              {
                OFFSET 7.75947 0.938293 5.60832
                CHANNELS 3 Zrotation Xrotation Yrotation
                JOINT lIndex2
                {
                  OFFSET 2.54057 -0.884171 1.56538
                  CHANNELS 3 Zrotation Xrotation Yrotation
                  End Site
                  {
                    OFFSET 1.62519 -0.234802 1.16502
                  }
                }
              }
              JOINT lMid1
              {
                OFFSET 8.24714 1.18213 3.41376
                CHANNELS 3 Zrotation Xrotation Yrotation
                JOINT lMid2
                {
                  OFFSET 3.10165 -0.590103 1.0647
                  CHANNELS 3 Zrotation Xrotation Yrotation
                  End Site
                  {
                    OFFSET 2.48547 -0.328903 0.83742
                  }
                }
              }
              JOINT lRing1
              {
                OFFSET 8.82822 0.546677 1.51678
                CHANNELS 3 Zrotation Xrotation Yrotation
                JOINT lRing2
                {
                  OFFSET 2.60934 -0.819778 -0.0198488
                  CHANNELS 3 Zrotation Xrotation Yrotation
                  End Site
                  {
                    OFFSET 2.33842 -0.294052 0.168128
                  }
                }
              }
              JOINT lPinky1
              {
                OFFSET 8.27202 -0.0477905 -0.4584
                CHANNELS 3 Zrotation Xrotation Yrotation
                JOINT lPinky2
                {
                  OFFSET 1.82734 -0.647385 -0.700984
                  CHANNELS 3 Zrotation Xrotation Yrotation
                  End Site
                  {
                    OFFSET 1.69225 -0.51767 -0.607171
                  }
                }
              }
            }
          }
        }
      }
    }
  }
  JOINT rButtock
  {
    OFFSET -8.77824 4.35084 1.2192
    CHANNELS 3 Zrotation Xrotation Yrotation
    JOINT rThigh
    {
      OFFSET 0 -1.70687 -2.19456
      CHANNELS 3 Zrotation Xrotation Yrotation
      JOINT rShin
      {
        OFFSET 0 -36.8199 0.73152
        CHANNELS 3 Zrotation Xrotation Yrotation
        JOINT rFoot
        {
          OFFSET 0.73152 -45.1104 -5.12064
          CHANNELS 3 Zrotation Xrotation Yrotation
          End Site
          {
            OFFSET -1.1221 -3.69964 12.103
          }
        }
      }
    }
  }
  JOINT lButtock
  {
    OFFSET 8.77824 4.35084 1.2192
    CHANNELS 3 Zrotation Xrotation Yrotation
    JOINT lThigh
    {
      OFFSET 0 -1.70687 -2.19456
      CHANNELS 3 Zrotation Xrotation Yrotation
      JOINT lShin
      {
        OFFSET 0 -36.8199 0.73152
        CHANNELS 3 Zrotation Xrotation Yrotation
        JOINT lFoot
        {
          OFFSET -0.73152 -45.1104 -5.12064
          CHANNELS 3 Zrotation Xrotation Yrotation
          End Site
          {
            OFFSET 1.1221 -3.69964 12.103
          }
        }
      }
    }
  }
}
MOTION
Frames:	8
Frame Time:	0.03333
-26.2421 65.7123 -85.8643 2.306021 2.494099 8.815176 7.228068 27.883701 -3.127326 2.633576 -11.66518 -2.451415 -5.777451 11.135262 -18.022106 8.607464 -27.505488 26.47282 -0.002603 0.0 -0.004273 -0.003407 -0.0 0.001384 -155.537825 -3.733381 161.884753 134.988708 -43.179875 158.832782 11.318982 76.41234 -129.592297 -163.423517 13.591752 138.569087 -78.03033 38.690088 42.412694 -134.324453 -24.499649 82.257312 10.280801 -18.182864 -4.585782 -164.48614 -20.970173 110.170439 -9.540427 23.115475 6.510025 -42.026625 58.55284 36.146158 -0.013686 -1.323383 -0.414396 11.603827 -26.214236 -3.148394 11.073737 36.763807 9.452801 -139.268713 -11.941901 -136.063206 59.835087 -86.720955 81.635856 97.902875 -12.190206 163.090797 -21.266053 48.910646 158.635103 169.117428 14.464578 -139.683165 -114.538024 -50.244743 -55.721983 132.441056 25.426672 -87.695089 50.38559 40.827339 -40.024107 12.371119 25.11811 -5.206792 161.153817 -8.160334 -143.466089 170.477262 -26.279471 -143.873067 -0.004589 1.202208 -0.377405 78.358654 78.780639 -91.675471 125.483711 -28.273771 123.237264 23.318224 -39.391918 25.360544 -0.000872 -0.000755 0.001122 -11.354701 -71.955092 -11.925661 89.718433 86.530322 27.072072 -109.17837 -19.324185 174.737491 -0.004099 0.000928 -0.004099 44.148045 -70.939949 151.468666 121.116499 -9.824186 97.96195 88.043428 33.359542 -178.760659
-27.872700000000002 66.0997 -87.8818 2.140897 10.716767 10.341683 3.647629 25.47703 70.843206 -8.568751 -8.542512 -76.590713 9.528701 17.666146 87.79388 -35.509165 14.532576 -77.468338 0.000362 0.0 0.004755 0.001251 -0.0 -0.000789 -59.827513 -86.721994 -81.628081 113.989056 56.668099 -115.156751 -8.445931 -51.038949 78.036453 -7.064375 -14.677293 -4.437412 93.028274 -51.083996 40.501127 -16.142175 -44.474533 -30.287122 -10.571614 15.013031 6.866286 -100.087826 44.613404 77.258383 -4.682024 12.536205 2.932631 -167.26863 -17.318285 144.227624 -145.100433 -1.521847 -178.649464 12.189498 35.170776 -5.019605 -135.818791 -11.890911 -133.184142 -23.711532 -39.236206 -25.547975 69.03889 -86.842118 90.941319 116.098019 15.964228 157.234427 -105.384875 85.872566 -112.10693 172.073413 6.097877 -141.383435 2.608039 2.554672 -0.458108 14.836477 14.524395 -14.292349 -54.898308 -68.588371 -11.3083 -171.319241 -52.959109 -101.057755 39.291179 53.364871 -32.87968 161.063249 1.289125 -142.507036 72.755906 -72.142761 89.772483 67.363807 83.314318 -85.117738 140.388732 -1.531714 137.475605 -11.103831 24.705802 -3.821981 179.994774 75.748809 0.004611 172.812869 0.807671 -91.63433 -94.334231 1.204652 -93.566264 -91.640365 40.951508 -173.24191 179.994774 75.748809 0.004611 -158.808888 7.444639 70.629803 118.641723 12.812679 -5.070431 -149.161502 5.147425 74.479072
-29.161399999999997 66.2556 -89.2599 2.346569 17.915052 11.544568 4.75563 26.193791 -1.924973 3.804466 -12.540394 -4.493118 3.683682 10.926436 37.504899 -26.221269 -15.225524 -35.795301 -0.001608 -0.0 0.002679 -0.001608 -0.0 0.002679 -5.825323 24.937152 6.99045 -120.123052 -12.11564 170.586921 -138.891477 63.421306 -126.665708 -4.77679 -16.844276 -4.194478 1.590844 -1.575579 -0.223191 -133.337548 -32.167849 117.594499 -108.427867 34.162087 91.743687 30.147838 -39.12696 -3.566252 -125.643452 49.839563 115.27364 -170.049152 -25.762647 144.012023 -0.000965 -0.01852 -0.006039 -156.172301 -15.218586 173.652769 44.743202 86.377475 -5.376431 15.5266 45.291983 7.392229 143.298622 38.837384 -147.737342 171.494192 80.735397 -126.121078 -4.157449 -54.596089 145.28334 177.448021 -4.647216 -143.003491 19.688375 17.543697 -5.975615 -24.482943 -25.325916 2.161158 156.839608 -27.326815 -122.423558 -13.449874 -2.376684 10.142788 141.109599 35.601176 -129.173977 4.944039 21.284971 -4.756932 75.404931 72.954722 -93.419482 -5.117049 28.347863 0.732335 -0.100065 0.258028 -0.091502 -3.241474 2.162956 -0.662911 -179.982151 75.749498 -0.012213 166.615898 0.998925 -0.03314 147.006201 86.967222 60.413476 179.754829 33.594201 -117.418297 -179.982151 75.749498 -0.012213 -148.532701 12.534271 180.0 176.609427 -64.623226 -97.774497 142.94774 -14.612725 -126.501863
-29.921999999999997 66.2035 -90.3976 2.322286 25.492876 12.040984 2.962294 25.637713 6.282075 2.578849 -13.054764 -14.746925 -11.191326 21.125378 -85.204545 39.385718 1.580338 87.654361 0.00201 0.0 0.002357 -0.003033 0.0 -0.003682 -78.728608 68.389977 81.807787 -73.551662 37.715843 103.563303 -8.749235 -32.296599 -130.889719 -179.92253 -14.999467 143.622014 -162.343207 -0.03422 89.272489 -133.693395 6.331372 65.11123 -138.764165 4.48753 115.031408 -80.557879 56.859292 60.711904 -160.937063 -7.488423 143.367141 3.205156 0.039814 0.367679 -145.107674 3.761354 179.688403 -76.371827 -77.99803 -97.596345 -137.841692 -7.593758 -135.095253 1.707654 -2.454886 -2.690666 -0.133224 -0.807123 0.178809 -85.107017 -40.94966 -34.879055 19.104515 71.59256 -132.949697 6.553774 1.490634 2.114011 0.441285 0.435356 -0.070204 19.323265 17.875835 -17.10371 77.666764 43.029378 -64.538884 -31.422129 -38.340976 1.033583 160.673158 -6.668092 -143.244273 7.496936 26.111623 -6.447512 0.021844 -1.725115 0.542723 -10.467996 0.044532 0.062935 -11.369098 37.937473 -9.670207 -63.798918 85.641327 26.20545 179.986017 75.748972 0.011505 162.045337 -1.439762 -180.0 -46.429403 -79.728033 163.503704 -87.553708 41.530199 16.056573 -0.000882 -0.000707 0.001134 49.806496 -39.794635 114.94351 107.341789 6.58632 -2.095076 -135.089636 32.374244 49.692534
-30.441000000000003 65.9008 -91.62360000000001 2.99637 34.435063 12.374987 0.613258 25.274392 23.006226 -1.180606 -12.958208 -32.663452 -10.266155 19.643913 -80.731523 38.735396 -1.112718 79.054528 -0.000843 0.0 -0.004925 -0.001696 -0.0 0.002579 2.460309 -18.216376 -3.668449 150.394615 71.121727 -105.841059 159.308544 -72.339413 -109.486762 -11.047771 12.515629 -0.822866 -173.771227 -11.439705 89.891463 -46.025675 -16.288427 7.01967 -0.329147 0.529411 0.186557 122.79493 -61.304369 65.120747 -125.64509 49.840353 115.274323 29.944959 -60.086208 6.876257 -145.119163 0.267868 -179.212224 11.941729 52.75603 -2.720902 16.824195 58.945649 12.649105 -148.861754 13.424355 -143.532536 80.165614 68.372694 -83.260789 105.091691 30.55393 -96.366992 -86.632002 -37.574623 111.244385 132.840752 63.545201 -109.28479 12.926828 12.051337 -3.310253 -67.140283 -69.183467 -1.971925 46.208598 39.653086 -36.317999 -50.207185 -51.182641 -10.827417 156.22168 6.265653 -140.787701 128.896584 51.837851 -118.07807 -0.004742 1.770675 -0.554724 148.372366 -76.776329 171.099709 44.070353 -47.783801 42.859515 152.057606 30.833312 146.857508 0.003075 0.000621 0.0 -61.476093 -62.154427 31.281439 85.527349 -9.347308 -26.163785 -153.991169 10.683662 93.759462 0.008611 0.000621 0.004306 51.786143 -35.943042 -180.0 107.375728 -59.97926 30.559333 -9.825086 -14.113507 -94.895006
-30.4956 65.4106 -93.0372 3.535554 45.195337 12.721921 0.129569 25.246738 5.024054 1.745183 -12.332914 -13.874613 -5.819464 27.90554 -138.636944 33.86392 34.804917 117.474626 0.001175 0.0 0.003561 -0.004531 -0.0 0.003124 0.133158 -0.807198 -0.178157 -115.037438 -19.693431 -165.945073 27.362143 -60.741302 -110.668725 -179.258649 -1.014229 143.288768 71.831606 -48.263384 25.791533 -130.562693 21.446108 98.307609 -33.797679 34.485125 25.495099 -1.380397 12.407441 0.926248 -169.089644 -33.247497 145.374299 -34.847235 54.918111 29.439219 -145.0611 -3.308026 -178.088008 -66.435918 87.677178 79.974312 -126.79688 -26.618651 -124.511696 -24.88282 -40.5054 -26.832544 3.767625 17.92103 -4.641065 114.112339 0.860728 -161.482213 66.415182 35.629853 102.489789 -127.167735 -70.162339 -108.043944 -71.830769 -48.264074 -25.791828 155.887791 -28.433529 -128.190658 164.554147 -40.547709 -122.457386 -173.333937 -54.945653 -107.67465 89.836263 60.703095 -81.262613 -6.889746 -10.465921 0.898736 78.572236 -72.041758 95.8674 -12.217528 45.829056 -2.415193 124.852031 -29.038223 122.620898 154.596644 36.783383 146.384749 -0.002664 -0.000849 -0.001332 -63.678478 -56.773269 26.208264 93.967339 7.212864 157.0287 11.373822 9.780146 91.02196 -179.98707 75.749402 -0.008847 -134.938904 20.735309 -18.529545 63.984416 78.526903 46.838624 -9.937343 18.093651 -95.198318
-29.9684 65.065 -94.8369 3.123627 56.844509 11.397248 -0.283546 25.737783 0.112489 3.33046 -12.140777 -6.288074 -13.675805 22.54655 -84.358828 41.965895 6.657656 59.443633 -0.003038 0.0 -0.000854 -0.003038 0.0 -0.000854 3.192541 -25.838956 -5.072938 64.011611 27.735291 -29.577609 167.242611 55.753947 66.92102 170.251299 -15.934942 144.085356 81.27617 -49.99578 32.240251 -64.066323 -86.031884 -103.929414 -123.87089 22.789138 104.455997 45.255958 -54.573325 4.009783 -10.975701 25.789582 7.64183 -153.985962 20.03361 138.709576 0.001435 0.022413 0.008445 -55.612932 -86.720467 -77.127358 -25.540441 -38.086614 -24.599181 -135.473943 -16.780762 -133.863437 155.716811 -4.925077 -162.13637 -143.936525 4.479103 -163.767603 13.406653 15.20079 -106.739492 3.127512 0.017394 1.414489 12.305566 11.514876 -3.095105 134.501954 -36.312799 -111.105166 46.208593 39.652989 -36.318124 -4.11882 3.973319 1.90068 0.570659 1.64842 -0.322155 -2.404615 2.449864 -0.314276 145.062304 -3.310181 178.088043 -11.469409 13.549768 7.391039 136.95996 -9.524632 134.263599 146.178002 8.962171 141.132632 0.0 -0.001238 0.001231 -62.392074 -52.095836 150.934559 -90.727791 -54.65671 173.246664 31.244403 87.576165 -112.115025 0.00035 -0.000306 -0.0 54.61655 -36.890562 41.183718 6.705003 70.589578 -96.335693 149.644137 65.551117 -85.772978
-28.933999999999997 64.6062 -96.6079 -1.968505 68.135456 5.891304 0.216722 25.574296 11.06893 2.961175 -12.868404 -11.750329 -0.449978 15.161741 33.915825 -20.731619 -24.845102 -76.36746 0.002371 -0.0 -0.000808 -0.003675 -0.0 0.003784 3.26838 -26.755867 -5.241634 55.786537 18.158144 -17.69281 -168.104321 43.095113 75.408944 153.426659 -41.337463 136.276828 88.928051 -50.831239 37.600136 -90.303035 -86.869415 -128.986243 -150.884805 -16.291661 120.978675 -171.559284 -34.877515 117.731406 153.672757 -76.484597 121.220277 -16.521438 40.019176 13.179933 -145.119138 0.349675 -179.238838 10.176885 -0.277826 -9.02948 -86.170599 -50.467903 -84.540307 3.416652 0.01128 -1.026344 -0.023304 -0.138655 0.030603 -66.885508 25.462417 9.049784 -178.451909 -7.371927 -47.226949 -177.628331 -8.648414 -143.587735 95.360244 37.751165 -54.683347 130.919596 -18.853259 -76.454198 50.385513 40.826922 -40.024603 102.696982 47.02583 -77.21044 161.154225 -8.160494 -143.465219 -80.983737 -77.62924 -52.542625 -0.003737 0.91811 -0.28792 80.899555 78.71616 -94.254168 145.17566 12.067461 141.822361 23.244204 -38.379677 24.706724 0.001146 0.001099 -0.001474 -56.825906 -43.182524 -0.0 96.830313 40.828945 120.564935 57.553392 -29.771507 157.329814 -0.000208 0.000692 -0.000104 57.007009 -41.977275 46.759938 41.346019 64.536837 100.918371 -53.821849 -32.364309 -178.808065
